<?xml version="1.0" encoding="UTF-8"?>
<svg width="376px" height="461px" viewBox="0 0 376 461" version="1.1" xmlns="http://www.w3.org/2000/svg" xmlns:xlink="http://www.w3.org/1999/xlink">
    <title>Shape</title>
    <g id="Page-1" stroke="none" strokeWidth="1" fill="none" fill-rule="evenodd">
        <g id="apple-logo-black" transform="translate(0.668586, 0.449000)" fill="#FFFFFF">
            <path d="M312.935414,244.494 C312.350414,186.209 360.461414,158.253 362.608414,156.847 C335.576414,117.311 293.455414,111.886 278.458414,111.275 C242.648414,107.63 208.538414,132.371 190.363414,132.371 C172.234414,132.371 144.160414,111.805 114.461414,112.325 C75.3814137,112.91 39.3714137,135.056 19.2604137,170.036 C-21.3165863,240.423 8.8854137,344.746 48.4224137,401.881 C67.7564137,429.801 90.8074137,461.227 121.046414,460.076 C150.198414,458.925 161.204414,441.217 196.437414,441.217 C231.671414,441.217 241.572414,460.076 272.405414,459.483 C303.748414,458.916 323.621414,431.024 342.800414,402.987 C364.985414,370.547 374.126414,339.139 374.665414,337.541 C373.987414,337.229 313.563414,314.077 312.935414,244.494 Z M254.996414,73.464 C271.033414,53.993 281.900414,26.933 278.951414,-2.84217094e-14 C255.800414,0.94 227.780414,15.389 211.167414,34.842 C196.280414,52.103 183.258414,79.583 186.746414,106.031 C212.563414,108.032 238.903414,92.899 254.996414,73.464 Z" id="Shape"></path>
        </g>
    </g>
</svg>