<svg xmlns="http://www.w3.org/2000/svg" width="14.744" height="14.744" viewBox="0 0 14.744 14.744">
  <g id="icon-trash" transform="translate(0.5 0.5)">
    <path id="Shape_1765" data-name="Shape 1765" d="M291.756,3298.5l-1.083,10.284a1.2,1.2,0,0,1-1.188,1.07h-6.215a1.2,1.2,0,0,1-1.189-1.07L281,3298.5" transform="translate(-279.506 -3296.11)" fill="none" stroke="#6e7377" stroke-linecap="round" stroke-linejoin="round" stroke-width="1"/>
    <path id="Shape_1766" data-name="Shape 1766" d="M278.5,3298.5h13.744" transform="translate(-278.5 -3296.11)" fill="none" stroke="#6e7377" stroke-linecap="round" stroke-linejoin="round" stroke-width="1"/>
    <path id="Shape_1767" data-name="Shape 1767" d="M285.5,3296.89V3295.1a.6.6,0,0,1,.6-.6h4.183a.6.6,0,0,1,.6.6v1.792" transform="translate(-281.317 -3294.5)" fill="none" stroke="#6e7377" stroke-linecap="round" stroke-linejoin="round" stroke-width="1"/>
    <path id="Shape_1768" data-name="Shape 1768" d="M290,3303v6.274" transform="translate(-283.128 -3297.921)" fill="none" stroke="#6e7377" stroke-linecap="round" stroke-linejoin="round" stroke-width="1"/>
    <path id="Shape_1769" data-name="Shape 1769" d="M294.3,3303l-.3,6.274" transform="translate(-284.738 -3297.921)" fill="none" stroke="#6e7377" stroke-linecap="round" stroke-linejoin="round" stroke-width="1"/>
    <path id="Shape_1770" data-name="Shape 1770" d="M285.5,3303l.3,6.274" transform="translate(-281.317 -3297.921)" fill="none" stroke="#6e7377" stroke-linecap="round" stroke-linejoin="round" stroke-width="1"/>
  </g>
</svg>
