<svg xmlns="http://www.w3.org/2000/svg" width="50.366" height="45.358" viewBox="0 0 50.366 45.358">
  <g id="business-deal-cash-1" transform="translate(-1.681 1)">
    <path id="Shape_203" data-name="Shape 203" d="M422.833,342.607s-4.1-1.811-6.968-2.873c-1.88-.7-1.612-3.87-.524-5.064A8.7,8.7,0,0,0,417.9,327.5a6.252,6.252,0,1,0-12.462,0,8.7,8.7,0,0,0,2.556,7.169c1.088,1.194,1.356,4.365-.524,5.064-2.867,1.062-6.968,2.873-6.968,2.873" transform="translate(-397.5 -299.568)" fill="none" stroke="#1a1c1d" stroke-linecap="round" stroke-linejoin="round" stroke-width="2"/>
    <path id="Shape_204" data-name="Shape 204" d="M434.833,342.61s-4.1-1.811-6.968-2.873c-1.88-.7-1.612-3.87-.524-5.064A8.7,8.7,0,0,0,429.9,327.5a6.245,6.245,0,1,0-12.462,0,8.7,8.7,0,0,0,2.556,7.169c1.088,1.194,1.356,4.365-.524,5.064-2.867,1.062-6.968,2.873-6.968,2.873" transform="translate(-384.105 -299.572)" fill="none" stroke="#1a1c1d" stroke-linecap="round" stroke-linejoin="round" stroke-width="2"/>
    <path id="Shape_205" data-name="Shape 205" d="M422.555,308.562h6.929a1.733,1.733,0,0,1,1.732,1.732v12.126a1.733,1.733,0,0,1-1.732,1.732h-6.929l-5.2,5.2v-5.2H405.232a1.733,1.733,0,0,1-1.732-1.732V310.294a1.733,1.733,0,0,1,1.732-1.732h6.929" transform="translate(-390.862 -308.562)" fill="none" stroke="#1a1c1d" stroke-linecap="round" stroke-linejoin="round" stroke-width="2"/>
    <path id="Shape_206" data-name="Shape 206" d="M411.5,314.563V316.3" transform="translate(-385.004 -304.167)" fill="none" stroke="#1a1c1d" stroke-linecap="round" stroke-linejoin="round" stroke-width="2"/>
    <path id="Shape_207" data-name="Shape 207" d="M411.5,309.563V311.3" transform="translate(-385.004 -307.829)" fill="none" stroke="#1a1c1d" stroke-linecap="round" stroke-linejoin="round" stroke-width="2"/>
    <path id="Shape_208" data-name="Shape 208" d="M409.5,317.491h5.2a1.732,1.732,0,0,0,0-3.465h-3.465a1.732,1.732,0,0,1,0-3.465h5.2" transform="translate(-386.468 -307.097)" fill="none" stroke="#1a1c1d" stroke-linecap="round" stroke-linejoin="round" stroke-width="2"/>
  </g>
</svg>
