<svg xmlns="http://www.w3.org/2000/svg" width="53" height="53" viewBox="0 0 53 53">
  <g id="Group_166" data-name="Group 166" transform="translate(1 1)">
    <g id="playlist-album">
      <path id="Rectangle-path_80" data-name="Rectangle-path 80" d="M231.5,1913.832a2.217,2.217,0,0,1,2.217-2.217h39.913a2.218,2.218,0,0,1,2.217,2.217v39.913a2.218,2.218,0,0,1-2.217,2.217H233.721a2.218,2.218,0,0,1-2.217-2.217Z" transform="translate(-231.504 -1911.614)" fill="none" stroke="#1a1c1d" stroke-linecap="round" stroke-linejoin="round" stroke-width="2"/>
      <path id="Shape_1151" data-name="Shape 1151" d="M237.5,1959.744a2.218,2.218,0,0,0,2.217,2.218h39.913a2.218,2.218,0,0,0,2.217-2.218v-39.913a2.218,2.218,0,0,0-2.217-2.218" transform="translate(-230.852 -1910.962)" fill="none" stroke="#1a1c1d" stroke-linecap="round" stroke-linejoin="round" stroke-width="2"/>
      <path id="Oval_190" data-name="Oval 190" d="M256.83,1940.266a3.326,3.326,0,1,0-3.326-3.326A3.326,3.326,0,0,0,256.83,1940.266Z" transform="translate(-229.113 -1909.223)" fill="none" stroke="#1a1c1d" stroke-linecap="round" stroke-linejoin="round" stroke-width="2"/>
      <path id="Oval_191" data-name="Oval 191" d="M242.83,1942.266a3.326,3.326,0,1,0-3.326-3.326A3.327,3.327,0,0,0,242.83,1942.266Z" transform="translate(-230.634 -1909.005)" fill="none" stroke="#1a1c1d" stroke-linecap="round" stroke-linejoin="round" stroke-width="2"/>
      <path id="Shape_1152" data-name="Shape 1152" d="M245.5,1940.4v-12.741a2.216,2.216,0,0,1,1.608-2.131l11.087-3.169a2.218,2.218,0,0,1,2.827,2.133v13.69" transform="translate(-229.982 -1910.455)" fill="none" stroke="#1a1c1d" stroke-linecap="round" stroke-linejoin="round" stroke-width="2"/>
    </g>
  </g>
</svg>
