<svg xmlns="http://www.w3.org/2000/svg" width="37.966" height="36.528" viewBox="0 0 37.966 36.528">
  <g id="Building-Construction_Buildings_building-2" data-name="Building-Construction / Buildings / building-2" transform="translate(1 1)">
    <g id="Group_26" data-name="Group 26" transform="translate(0 0)">
      <g id="building-2">
        <path id="Shape_183" data-name="Shape 183" d="M211.167,366.012h35.966" transform="translate(-211.167 -331.484)" fill="none" stroke="#c1d72e" stroke-linecap="round" stroke-linejoin="round" stroke-width="2"/>
        <path id="Rectangle-path_14" data-name="Rectangle-path 14" d="M214.79,331.229H244.5v30.024H214.79Z" transform="translate(-211.663 -326.726)" fill="none" stroke="#c1d72e" stroke-linecap="round" stroke-linejoin="round" stroke-width="2"/>
        <path id="Shape_184" data-name="Shape 184" d="M211.167,331.229h35.966" transform="translate(-211.167 -326.726)" fill="none" stroke="#c1d72e" stroke-linecap="round" stroke-linejoin="round" stroke-width="2"/>
        <path id="Shape_185" data-name="Shape 185" d="M243.186,330.515v-3a1.534,1.534,0,0,0-1.564-1.5H218.165a1.534,1.534,0,0,0-1.564,1.5v3" transform="translate(-211.91 -326.012)" fill="none" stroke="#c1d72e" stroke-linecap="round" stroke-linejoin="round" stroke-width="2"/>
        <path id="Shape_186" data-name="Shape 186" d="M229.283,364.822v-5.254a2.347,2.347,0,0,1,4.691,0v5.254" transform="translate(-213.645 -330.295)" fill="none" stroke="#c1d72e" stroke-linecap="round" stroke-linejoin="round" stroke-width="2"/>
        <path id="Shape_187" data-name="Shape 187" d="M220.225,359.055h4.691" transform="translate(-212.406 -330.533)" fill="none" stroke="#c1d72e" stroke-linecap="round" stroke-linejoin="round" stroke-width="2"/>
        <path id="Shape_188" data-name="Shape 188" d="M238.341,359.055h4.691" transform="translate(-214.885 -330.533)" fill="none" stroke="#c1d72e" stroke-linecap="round" stroke-linejoin="round" stroke-width="2"/>
        <path id="Shape_189" data-name="Shape 189" d="M220.225,352.1h6.255" transform="translate(-212.406 -329.581)" fill="none" stroke="#c1d72e" stroke-linecap="round" stroke-linejoin="round" stroke-width="2"/>
        <path id="Shape_190" data-name="Shape 190" d="M236.529,352.1h6.255" transform="translate(-214.637 -329.581)" fill="none" stroke="#c1d72e" stroke-linecap="round" stroke-linejoin="round" stroke-width="2"/>
        <path id="Shape_191" data-name="Shape 191" d="M220.225,345.142h6.255" transform="translate(-212.406 -328.629)" fill="none" stroke="#c1d72e" stroke-linecap="round" stroke-linejoin="round" stroke-width="2"/>
        <path id="Shape_192" data-name="Shape 192" d="M236.529,345.142h6.255" transform="translate(-214.637 -328.629)" fill="none" stroke="#c1d72e" stroke-linecap="round" stroke-linejoin="round" stroke-width="2"/>
        <path id="Shape_193" data-name="Shape 193" d="M220.225,338.186h6.255" transform="translate(-212.406 -327.678)" fill="none" stroke="#c1d72e" stroke-linecap="round" stroke-linejoin="round" stroke-width="2"/>
        <path id="Shape_194" data-name="Shape 194" d="M236.529,338.186h6.255" transform="translate(-214.637 -327.678)" fill="none" stroke="#c1d72e" stroke-linecap="round" stroke-linejoin="round" stroke-width="2"/>
      </g>
    </g>
  </g>
</svg>
