<?xml version="1.0" encoding="UTF-8"?>
<svg width="20px" height="20px" viewBox="0 0 20 20" version="1.1" xmlns="http://www.w3.org/2000/svg" xmlns:xlink="http://www.w3.org/1999/xlink">
    <title>Path_47</title>
    <g id="Page-1" stroke="none" strokeWidth="1" fill="none" fill-rule="evenodd">
        <g id="iconLinkedin" transform="translate(-0.000002, 0.000000)" fill-rule="nonzero">
            <path d="M19.2420046,17.524 C19.2427986,18.0393158 19.0388535,18.5338419 18.6750328,18.8987878 C18.3112121,19.2637338 17.8173182,19.469205 17.3020023,19.47 L1.94000232,19.47 C1.42468649,19.469205 0.930792554,19.2637338 0.566971847,18.8987878 C0.20315114,18.5338419 -0.000793941098,18.0393158 0,17.524 L0,1.946 C-0.000793941098,1.43068417 0.20315114,0.936158093 0.566971847,0.571212167 C0.930792554,0.206266241 1.42468649,0.000795035517 1.94000232,0 L17.3020023,0 C17.8173182,0.000795035517 18.3112121,0.206266241 18.6750328,0.571212167 C19.0388535,0.936158093 19.2427986,1.43068417 19.2420046,1.946 L19.2420046,17.524 Z" id="Path_47" fill="#FFFFFF"></path>
            <g id="Group_50" transform="translate(3.589002, 3.457843)" fill="#006699">
                <path d="M2.674,1.3021567 C2.67644688,1.66492046 2.52603435,2.01194833 2.25962878,2.2581832 C1.99322321,2.50441806 1.63545001,2.627099 1.274,2.5961567 C0.570837594,2.54190557 0.0391759806,1.93689224 0.0757511791,1.23258918 C0.112326378,0.528286109 0.703797045,-0.0184017796 1.40879651,0.000474420588 C2.11379597,0.0193506208 2.6751653,0.596905538 2.674,1.3021567 L2.674,1.3021567 Z M8.8817842e-16,11.9471567 L8.8817842e-16,3.6181567 L2.589,3.6181567 L2.589,11.9471567 L8.8817842e-16,11.9471567 Z" id="Path_48"></path>
                <path d="M4.135,6.2751567 C4.135,5.2361567 4.101,4.3681567 4.067,3.6181567 L6.315,3.6181567 L6.435,4.7771567 L6.486,4.7771567 C7.05354574,3.91463481 8.02581289,3.40582004 9.058,3.4311567 C10.758,3.4311567 12.038,4.5721567 12.038,7.0251567 L12.038,11.9471567 L9.449,11.9471567 L9.449,7.3311567 C9.449,6.2581567 9.074,5.5261567 8.137,5.5261567 C7.53303298,5.5349222 7.0005101,5.92428945 6.809,6.4971567 C6.74286298,6.70615197 6.71408928,6.9251706 6.724,7.1441567 L6.724,11.9441567 L4.135,11.9441567 L4.135,6.2751567 Z" id="Path_49"></path>
            </g>
        </g>
    </g>
</svg>