<svg xmlns="http://www.w3.org/2000/svg" width="19.242" height="19.47" viewBox="0 0 19.242 19.47">
  <g id="Group_51" data-name="Group 51" transform="translate(-633.225 -217.004)">
    <path id="Path_47" data-name="Path 47" d="M652.467,234.528a1.943,1.943,0,0,1-1.94,1.946H635.165a1.943,1.943,0,0,1-1.94-1.946V218.95a1.943,1.943,0,0,1,1.94-1.946h15.362a1.943,1.943,0,0,1,1.94,1.946Z" fill="#069"/>
    <g id="Group_50" data-name="Group 50" transform="translate(636.742 220.47)">
      <path id="Path_48" data-name="Path 48" d="M667.4,249.27a1.29,1.29,0,0,1-1.4,1.294,1.3,1.3,0,1,1,1.4-1.294Zm-2.674,10.645v-8.329h2.589v8.329Z" transform="translate(-664.654 -247.976)" fill="#fff"/>
      <path id="Path_49" data-name="Path 49" d="M701.7,281.408c0-1.039-.034-1.907-.068-2.657h2.248L704,279.91h.051a2.991,2.991,0,0,1,2.572-1.346c1.7,0,2.98,1.141,2.98,3.594v4.922h-2.589v-4.616c0-1.073-.375-1.805-1.312-1.805a1.422,1.422,0,0,0-1.328.971,1.865,1.865,0,0,0-.085.647v4.8H701.7Z" transform="translate(-697.493 -275.141)" fill="#fff"/>
    </g>
  </g>
</svg>
