<?xml version="1.0" encoding="UTF-8" standalone="no"?>
<svg xmlns="http://www.w3.org/2000/svg" width="30" height="30" viewBox="0 0 30 30"><defs><style>.a{fill:#fff;stroke:#bbb;}.b{fill:#6f6f6f;stroke:#fff;strokeWidth:0.5px;}.c{stroke:none;}.d{fill:none;}</style></defs><g transform="translate(-135 -317)"><g class="a" transform="translate(135 317)"><circle class="c" cx="15" cy="15" r="15"/><circle class="d" cx="15" cy="15" r="14.5"/></g><path class="b" d="M15.5,2H3.5A1.5,1.5,0,0,0,2,3.5v8.25a1.5,1.5,0,0,0,1.5,1.5h3V17l3-1.5,3,1.5V13.25h3a1.5,1.5,0,0,0,1.5-1.5V3.5A1.5,1.5,0,0,0,15.5,2Zm0,9.75H3.5v-1.5h12ZM15.5,8H3.5V3.5h12Z" transform="translate(140.5 323.5)"/></g></svg>