<svg xmlns="http://www.w3.org/2000/svg" width="170.801" height="46" viewBox="0 0 170.801 46">
  <g id="mailchimp-vector-logo" transform="translate(-23.023 -243.315)" style="isolation: isolate">
    <g id="Group_35" data-name="Group 35" transform="translate(23.023 243.315)">
      <path id="Path_34" data-name="Path 34" d="M135.63,310.827h.939a2.644,2.644,0,0,0,0-1.765c-.2-1.053-.512-1.765-1.139-1.679-.626.114-.626.939-.427,1.992a2.543,2.543,0,0,0,.626,1.452Z" transform="translate(-103.046 -289.142)" fill="#979da2"/>
      <g id="Group_33" data-name="Group 33" transform="translate(22.968 21.209)">
        <path id="Path_35" data-name="Path 35" d="M107.81,319.244c.427.2.74.313.825.2.114-.114,0-.2-.114-.427a2.458,2.458,0,0,0-1.139-.939,3.06,3.06,0,0,0-3.131.427c-.313.2-.626.512-.512.74,0,.114.114.114.2.114a13.99,13.99,0,0,1,2.192-.512,3.748,3.748,0,0,1,1.679.4Z" transform="translate(-103.716 -317.829)" fill="#979da2"/>
        <path id="Path_36" data-name="Path 36" d="M111.152,324.564a2.012,2.012,0,0,0-1.139.512c-.2.2-.313.313-.313.427v.114h.114a2.148,2.148,0,0,0,.427-.114,3.054,3.054,0,0,1,1.879-.2c.313,0,.427.114.512,0v-.2c-.028-.313-.655-.626-1.48-.541Z" transform="translate(-107.997 -322.637)" fill="#979da2"/>
      </g>
      <g id="Group_34" data-name="Group 34" transform="translate(24.639 20.119)">
        <path id="Path_37" data-name="Path 37" d="M111.383,317.757a3.65,3.65,0,0,0,0-2.078c-.2-1.053-.512-1.679-1.252-1.679-.626.114-.626.939-.427,2.078a6.6,6.6,0,0,0,.512,1.452c.541.854.854.626,1.167.228Z" transform="translate(-109.586 -314)" fill="#979da2"/>
      </g>
      <path id="Path_38" data-name="Path 38" d="M129.42,328.069a.807.807,0,0,0,1.053-.2.845.845,0,0,0-.512-.939.807.807,0,0,0-1.053.2C128.68,327.443,128.993,327.87,129.42,328.069Z" transform="translate(-98.715 -303.054)" fill="#979da2"/>
      <path id="Path_39" data-name="Path 39" d="M138.426,323.2c-.313,0-.626.313-.626.825,0,.427.2.825.626.825.313,0,.626-.313.626-.825C138.967,323.6,138.739,323.2,138.426,323.2Z" transform="translate(-105.131 -300.462)" fill="#979da2"/>
      <path id="Path_40" data-name="Path 40" d="M49.556,338.55a.186.186,0,0,0-.313,0H48.93a.567.567,0,0,1-.512-.313,1.467,1.467,0,0,1,0-.939l.114-.2a2.555,2.555,0,0,0,.2-2.5,2.248,2.248,0,0,0-1.679-1.252,2.012,2.012,0,0,0-1.879.74,2.933,2.933,0,0,0-.74,2.277.214.214,0,0,0,.2.2c.114,0,.313-.114.427-.427v-.114a1.53,1.53,0,0,1,.313-.74,1.024,1.024,0,0,1,.825-.512,1.3,1.3,0,0,1,1.053.2,1.279,1.279,0,0,1,.512,1.565,1.924,1.924,0,0,0-.427,1.366,1.561,1.561,0,0,0,1.252,1.452c.512,0,.939-.313.939-.512.114-.171.028-.171.028-.285Z" transform="translate(-38.319 -307.701)" fill="#979da2"/>
      <path id="Path_41" data-name="Path 41" d="M64.544,272.4a7.277,7.277,0,0,0-.313-1.139l-.427-.939a3.369,3.369,0,0,0,.626-2.59,4.176,4.176,0,0,0-.939-1.879,7.032,7.032,0,0,0-3.33-1.679l-.825-.2s0-1.992-.114-2.818a8.359,8.359,0,0,0-.427-2.5,6.291,6.291,0,0,0-1.765-3.131c2.078-2.192,3.444-4.7,3.444-6.774,0-3.956-4.9-5.209-11.044-2.7l-1.252.512s-2.277-2.277-2.391-2.277c-6.746-6.034-28.292,18.017-21.433,23.852l1.452,1.252a7.627,7.627,0,0,0-.427,3.444,7.91,7.91,0,0,0,2.277,4.383,6.955,6.955,0,0,0,4.583,1.879c2.7,6.262,8.852,9.991,16.025,10.218,7.714.2,14.26-3.444,16.964-9.905a12.816,12.816,0,0,0,.939-4.383c.171-1.907-.882-2.619-1.622-2.619Zm-31.651,4.9c-.2,0-.512.114-.74,0-2.277-.114-4.9-2.192-5.095-4.7-.2-2.7,1.139-4.782,3.643-5.323a2.991,2.991,0,0,1,1.053-.114c1.366.114,3.444,1.139,3.956,4.156C36.109,274.165,35.511,276.869,32.893,277.3Zm-2.59-11.67a5.848,5.848,0,0,0-3.757,2.391,8.034,8.034,0,0,1-1.565-1.565c-1.366-2.5,1.452-7.486,3.444-10.218,4.782-6.86,12.381-12.068,15.826-11.158a13.694,13.694,0,0,1,2.5,2.391,51.85,51.85,0,0,0-6.774,4.7A29.432,29.432,0,0,0,30.3,265.626Zm24.564,10.617.114-.114a.111.111,0,0,0-.114-.114,16.613,16.613,0,0,1-7.087-.74c.427-1.252,1.366-.825,2.9-.626a19.626,19.626,0,0,0,6.973-.74,15.908,15.908,0,0,0,5.209-2.59,11.815,11.815,0,0,1,.74,2.5.97.97,0,0,1,.74.114c.313.2.512.626.427,1.679a10.061,10.061,0,0,1-2.59,5.209,11.034,11.034,0,0,1-3.216,2.391,12.159,12.159,0,0,1-2.078.825c-5.636,1.765-11.243-.114-13.008-4.383a2.861,2.861,0,0,1-.313-1.053,8.672,8.672,0,0,1,1.992-8.226h0a.759.759,0,0,0,.2-.512.671.671,0,0,0-.2-.427c-.74-1.053-3.216-2.818-2.7-6.262a4.579,4.579,0,0,1,4.469-4.07h.512c.825,0,1.679.2,2.277.2a5.019,5.019,0,0,0,3.529-1.138,3.025,3.025,0,0,1,1.366-.74.728.728,0,0,1,.512,0,1.187,1.187,0,0,1,.825.313c1.053.74,1.139,2.277,1.252,3.529,0,.74.114,2.391.114,2.818.114,1.053.313,1.252.939,1.452.313.114.626.2,1.053.313a6.637,6.637,0,0,1,2.7,1.252,1.936,1.936,0,0,1,.512.939c.2,1.139-.939,2.59-3.757,3.956a18.261,18.261,0,0,1-9.364,1.452l-.939-.114c-2.078-.313-3.216,2.391-1.992,4.156.825,1.139,3.017,1.992,5.095,1.992,5.01,0,8.852-2.078,10.218-3.956l.114-.2c.114-.114,0-.2-.114-.114-1.139.825-6.347,3.956-11.869,3.017a11.467,11.467,0,0,1-1.252-.313,2.453,2.453,0,0,1-1.679-1.679c4.668,1.366,7.486,0,7.486,0Zm-7.087-.825ZM39.24,256.262a19.544,19.544,0,0,1,5.721-4.7c.114,0,.114,0,.114.114a8.776,8.776,0,0,0-.512,1.252.112.112,0,0,0,.114.114,10.415,10.415,0,0,1,5.01-1.765.112.112,0,0,1,.114.114,5.642,5.642,0,0,0-.825.825.112.112,0,0,0,.114.114,8.771,8.771,0,0,1,4.156,1.139c.114,0,0,.2-.114.2a16.471,16.471,0,0,0-7.6,0,17.261,17.261,0,0,0-6.148,2.7c-.142-.028-.228-.028-.142-.114Z" transform="translate(-23.023 -243.315)" fill="#979da2"/>
    </g>
    <g id="Group_36" data-name="Group 36" transform="translate(73.339 256.859)">
      <path id="Path_42" data-name="Path 42" d="M583,305.2a4.6,4.6,0,0,0-4.269,3.017c-.313.74-.313.939-.512.939-.313,0-.114-.626.114-1.252a6.335,6.335,0,0,0,.114-2.391H574.8v17.5h5.01V317.5a3.835,3.835,0,0,0,3.33,2.078c3.643,0,5.408-3.017,5.408-7.173-.029-4.7-2.22-7.2-5.55-7.2Zm-1.338,11.044c-1.139,0-1.992-1.452-1.992-3.444s.825-3.444,1.992-3.444c1.366,0,1.992,1.252,1.992,3.444-.029,2.306-.541,3.444-1.992,3.444Z" transform="translate(-468.063 -301.13)" fill="#979da2"/>
      <path id="Path_43" data-name="Path 43" d="M215.711,295.543c-2.192,0-3.216,1.765-3.757,2.818-.313.626-.313,1.139-.626,1.139s-.114-.427-.313-1.366a3.392,3.392,0,0,0-3.529-2.59c-2.277,0-3.33,1.992-3.757,3.017-.313.74-.313.939-.512.939-.313,0-.114-.626.114-1.252a6.336,6.336,0,0,0,.114-2.391H199.8V309.6h4.9v-6.86c0-1.366.512-3.017,1.565-3.017,1.139,0,1.366.825,1.366,2.391V309.6h5.01v-6.86c0-1.252.512-3.017,1.565-3.017,1.139,0,1.366,1.252,1.366,2.391v7.4h4.782v-8.112c-.057-3.558-1.309-5.863-4.64-5.863Zm84.564,0c-2.192,0-3.216,1.765-3.757,2.818-.313.626-.313,1.139-.626,1.139s-.114-.512-.313-1.366a3.392,3.392,0,0,0-3.529-2.59c-2.277,0-3.33,1.992-3.757,3.017-.313.74-.313.939-.512.939-.313,0-.114-.626.114-1.252a6.335,6.335,0,0,0,.114-2.391h-3.643V309.6h5.009v-6.86c0-1.366.512-3.017,1.565-3.017,1.139,0,1.366.825,1.366,2.391V309.6h5.01v-6.86c0-1.252.512-3.017,1.565-3.017,1.139,0,1.366,1.252,1.366,2.391v7.4h4.9v-8.112c-.285-3.558-1.537-5.863-4.867-5.863Zm-71.443,0a16.043,16.043,0,0,0-6.575,1.366v4.156a13.464,13.464,0,0,1,5.522-1.765c1.992,0,2.192,1.053,2.078,1.992a13.087,13.087,0,0,0-2.277-.114c-4.07,0-6.148,1.879-6.148,4.782,0,2.818,2.277,3.956,4.27,3.956a4.674,4.674,0,0,0,4.469-2.818c.313-.626.313-1.053.512-1.053.313,0,.2.313.2.939a9.959,9.959,0,0,0,.2,2.59h3.786V302.8c-.114-4.241-1.565-7.258-6.034-7.258Zm-1.252,10.845c-1.139.313-1.765-.114-1.765-.825,0-1.053,1.139-1.565,2.7-1.565a8.553,8.553,0,0,1,1.366.114A3.852,3.852,0,0,1,227.58,306.387Zm15.4-14.687h5.01v17.9h-5.01Zm10.531,11.044c0-1.252,1.139-2.391,3.216-2.391a9.635,9.635,0,0,1,4.583,1.366v-4.81s-1.452-1.366-5.01-1.366c-3.757,0-6.86,2.192-6.86,6.973s2.818,7.4,6.86,7.4a8.123,8.123,0,0,0,5.095-1.765v-4.583a9.2,9.2,0,0,1-4.583,1.452c-2.476.114-3.3-1.025-3.3-2.277Zm17.9-7.2c-2.9,0-3.956,2.7-4.156,3.216s-.313.74-.512.74c-.313,0-.114-.626,0-.939a17.2,17.2,0,0,0,.74-4.782,6.726,6.726,0,0,0-.2-2.078h-4.27v17.9h5.01v-6.86c0-1.139.427-3.017,1.679-3.017,1.053,0,1.366.74,1.366,2.277v7.6h5.01v-7.287c-.2-3.529-.712-6.774-4.668-6.774Zm6.148.313V309.6h5.01V295.856a5.067,5.067,0,0,1-2.5.512,6.643,6.643,0,0,1-2.5-.512Z" transform="translate(-199.8 -291.472)" fill="#979da2"/>
      <ellipse id="Ellipse_13" data-name="Ellipse 13" cx="3.017" cy="1.992" rx="3.017" ry="1.992" transform="translate(77.249 0)" fill="#979da2"/>
      <path id="Path_44" data-name="Path 44" d="M328.5,306.3v13.748h4.981V306.3a5.067,5.067,0,0,1-2.5.512C330.976,306.727,328.5,306.3,328.5,306.3Z" transform="translate(-291.868 -301.917)" fill="#979da2"/>
      <ellipse id="Ellipse_14" data-name="Ellipse 14" cx="3.017" cy="1.992" rx="3.017" ry="1.992" transform="translate(36.091 0)" fill="#979da2"/>
    </g>
  </g>
</svg>
