<svg xmlns="http://www.w3.org/2000/svg" width="47.607" height="49.439" viewBox="0 0 47.607 49.439">
  <g id="Video-Movies-TV_Video-Players_video-player-playing" data-name="Video-Movies-TV / Video-Players / video-player-playing" transform="translate(1 1)">
    <g id="Group_53" data-name="Group 53">
      <g id="video-player-playing">
        <path id="Oval_33" data-name="Oval 33" d="M345.379,647.836c12.6,0,22.8-10.62,22.8-23.72s-10.208-23.719-22.8-23.719-22.8,10.618-22.8,23.719S332.785,647.836,345.379,647.836Z" transform="translate(-322.575 -600.397)" fill="#1a1c1d" stroke="#c1d72e" stroke-linecap="round" stroke-linejoin="round" stroke-width="2"/>
        <path id="Shape_301" data-name="Shape 301" d="M332.386,607.981a.422.422,0,0,0-.567-.047.689.689,0,0,0-.237.645v13.686a.689.689,0,0,0,.237.645.42.42,0,0,0,.567-.049l10.209-6.9a.609.609,0,0,0,0-1.085Z" transform="translate(-313.366 -591.702)" fill="none" stroke="#c1d72e" stroke-linecap="round" stroke-linejoin="round" stroke-width="2"/>
      </g>
    </g>
  </g>
</svg>
