<svg xmlns="http://www.w3.org/2000/svg" width="37.411" height="37.41" viewBox="0 0 37.411 37.41">
  <g id="Icon_-_Mag-note" data-name="Icon - Mag-note" transform="translate(1 1)">
    <g id="Icon_-_Magnifying_Glass" data-name="Icon - Magnifying Glass">
      <g id="Group_10" data-name="Group 10">
        <path id="Path_1" data-name="Path 1" d="M318.352,315.678a14.676,14.676,0,1,0-14.676,14.674A14.678,14.678,0,0,0,318.352,315.678Z" transform="translate(-289 -301)" fill="none" stroke="#fff" strokeLinecap="round" strokeLinejoin="round" strokeWidth="2"/>
        <line id="Line_2" data-name="Line 2" x2="10.648" y2="9.218" transform="translate(24.352 25.781)" fill="none" stroke="#fff" strokeLinecap="round" strokeLinejoin="round" strokeWidth="2"/>
      </g>
    </g>
    <path id="Shape_1577" data-name="Shape 1577" d="M246.423,2628.083c0,1.43-1.715,2.586-3.832,2.586s-3.832-1.156-3.832-2.586,1.715-2.584,3.832-2.584S246.423,2626.654,246.423,2628.083Z" transform="translate(-230.72 -2609.057)" fill="none" stroke="#fff" strokeLinecap="round" strokeLinejoin="round" strokeWidth="1.987"/>
    <path id="Shape_1578" data-name="Shape 1578" d="M248.693,2625.322v-10.388a1.533,1.533,0,0,1,2.3-1.331l3.066,1.755" transform="translate(-233.103 -2606.176)" fill="none" stroke="#fff" strokeLinecap="round" strokeLinejoin="round" strokeWidth="1.987"/>
  </g>
</svg>
