<svg width="100" height="100" xmlns="http://www.w3.org/2000/svg">
 <g>
  <g clip-path="url(#clip-iPhone_X_XS_11_Pro_1)" id="iPhone_X_XS_11_Pro_1">
   <g id="Group_1">
    <path fill="#c1d82f" d="m44.943,77.834a32.6,32.6 0 0 0 12.887,-2.574a34.091,34.091 0 0 0 10.438,-7.014a32.722,32.722 0 0 0 9.665,-23.359a31.57,31.57 0 0 0 -2.577,-12.741a32.331,32.331 0 0 0 -7.088,-10.489a36.075,36.075 0 0 0 -10.438,-7.143a32.6,32.6 0 0 0 -12.887,-2.574l0,0a32.6,32.6 0 0 0 -12.887,2.574a36.075,36.075 0 0 0 -10.438,7.143a32.331,32.331 0 0 0 -7.088,10.489a31.57,31.57 0 0 0 -2.577,12.741a32.722,32.722 0 0 0 9.665,23.359a34.091,34.091 0 0 0 10.439,7.014a32.6,32.6 0 0 0 12.886,2.574zm34.794,-5.92l19.588,19.562a5.822,5.822 0 0 1 1.224,1.8a5.393,5.393 0 0 1 0.451,2.19a5.337,5.337 0 0 1 -1.611,3.925a5.2,5.2 0 0 1 -3.8,1.609a5.412,5.412 0 0 1 -2.191,-0.45a5.83,5.83 0 0 1 -1.8,-1.223l0,0l-19.722,-19.691a46.359,46.359 0 0 1 -12.436,6.757a42.05,42.05 0 0 1 -14.5,2.51a42.5,42.5 0 0 1 -17.14,-3.476a44.685,44.685 0 0 1 -23.449,-23.427a43.759,43.759 0 0 1 -3.351,-17.113a44.378,44.378 0 0 1 3.351,-17.117a44.112,44.112 0 0 1 9.472,-13.9a45.522,45.522 0 0 1 13.977,-9.395a42.5,42.5 0 0 1 17.143,-3.475a42.5,42.5 0 0 1 17.139,3.475a45.522,45.522 0 0 1 13.982,9.4a42.389,42.389 0 0 1 9.343,13.9a44.275,44.275 0 0 1 1.031,31.725a43.125,43.125 0 0 1 -6.83,12.42l0.129,-0.006z" id="search"/>
    <path fill="#c1d82f" d="m58.32299,29.33301q-2.673,0.042 -5.534,0.313t-5.764,0.731q-2.9,0.459 -5.764,1.128t-5.576,1.545l0.021,3.321q0.021,3.321 0.021,7.33l0,10.651a6.227,6.227 0 0 0 -2.047,-0.084a7.378,7.378 0 0 0 -2.255,0.668a6.777,6.777 0 0 0 -3.158,2.674a3.193,3.193 0 0 0 -0.313,3.174a3.394,3.394 0 0 0 2.715,1.8a7.081,7.081 0 0 0 4.135,-0.627a7.883,7.883 0 0 0 2.715,-2.088a4.524,4.524 0 0 0 0.835,-2.423l0.042,-18.461q2.13,-0.627 4.3,-1.128t4.344,-0.877q2.172,-0.376 4.344,-0.606t4.3,-0.355l0,16.54a6.487,6.487 0 0 0 -2.227,-0.126a7.464,7.464 0 0 0 -2.4,0.668a6.777,6.777 0 0 0 -3.153,2.673a3.193,3.193 0 0 0 -0.313,3.174a3.394,3.394 0 0 0 2.715,1.8a7.081,7.081 0 0 0 4.135,-0.627a8.77,8.77 0 0 0 2.626,-1.822a4.4,4.4 0 0 0 1.3,-2.235l0,-4.176q0,-4.177 -0.021,-9.189t-0.021,-9.189l-0.002,-4.177z" id="music"/>
   </g>
  </g>
 </g>
</svg>