<svg xmlns="http://www.w3.org/2000/svg" width="16" height="16" viewBox="0 0 16 16">
  <g id="Button-Info" transform="translate(-203.122 -575.122)">
    <circle id="Ellipse_20" data-name="Ellipse 20" cx="8" cy="8" r="8" transform="translate(203.122 575.122)" fill="#dcdfe2"/>
    <path id="Path_46" data-name="Path 46" d="M5.161,6.281H7.7l-1.31,5.66H7.474l-.255,1.127H4.8l1.31-5.66H4.892ZM6.412,3.889a.824.824,0,0,1,.069-.334.85.85,0,0,1,.187-.272A.919.919,0,0,1,6.943,3.1a.841.841,0,0,1,.341-.069.824.824,0,0,1,.334.069.86.86,0,0,1,.455.455.824.824,0,0,1,.069.334.848.848,0,0,1-.069.337.951.951,0,0,1-.183.282.868.868,0,0,1-.272.193.792.792,0,0,1-.334.072A.808.808,0,0,1,6.943,4.7a.908.908,0,0,1-.275-.193.919.919,0,0,1-.187-.282A.848.848,0,0,1,6.412,3.889Z" transform="translate(204.589 575.012)" fill="#313438"/>
  </g>
</svg>
