<?xml version="1.0" encoding="UTF-8" standalone="no"?>
<svg xmlns="http://www.w3.org/2000/svg" width="30" height="30" viewBox="0 0 30 30"><defs><style>.a{fill:#fff;stroke:#bbb;}.b{fill:#6f6f6f;stroke:#fff;}.c{stroke:none;}.d{fill:none;}</style></defs><g transform="translate(-135 -261)"><g class="a" transform="translate(135 261)"><circle class="c" cx="15" cy="15" r="15"/><circle class="d" cx="15" cy="15" r="14.5"/></g><path class="b" d="M11.5,5.781A1.969,1.969,0,1,1,9.531,7.75,1.969,1.969,0,0,1,11.5,5.781m0,8.438c2.784,0,5.719,1.369,5.719,1.969v1.031H5.781V16.188c0-.6,2.934-1.969,5.719-1.969M11.5,4a3.75,3.75,0,1,0,3.75,3.75A3.749,3.749,0,0,0,11.5,4Zm0,8.438c-2.5,0-7.5,1.256-7.5,3.75V19H19V16.188C19,13.694,14,12.438,11.5,12.438Z" transform="translate(138.5 264.5)"/></g></svg>