<svg xmlns="http://www.w3.org/2000/svg" width="86.681" height="27.286" viewBox="0 0 86.681 27.286">
  <g id="VICE_LOGO_BLACK" transform="translate(9.922 -1.936)" style="isolation: isolate">
    <path id="Path_31" data-name="Path 31" d="M132.388,16.7c.839.938,2.665.888,3.751,1.58-1.481.395-3.307.395-4.64.888C131.846,18.378,132.092,17.539,132.388,16.7Z" transform="translate(-79.073 -8.781)" fill="#979da2"/>
    <path id="Path_32" data-name="Path 32" d="M105.541,23.4c-.444,1.974-1.333,4.294-1.876,6.466,2.814.049,5.825-.543,8.687-.691a5.912,5.912,0,0,0,.79-1.974,3.87,3.87,0,0,1,.444,3.554c-4.393-.049-7.552,3.554-11.9,3.554-1.925,0-3.6-1.086-2.665-3.307C100.358,27.941,103.566,25.819,105.541,23.4Z" transform="translate(-61.162 -13.275)" fill="#979da2"/>
    <path id="Path_33" data-name="Path 33" d="M86.748,4.806c.086.386-.343.728-.514.985-1.8,2.27-3.813,4.969-6.254,6.683a5.426,5.426,0,0,1-.214,2.784,11.028,11.028,0,0,1,1.714,2.613,9.705,9.705,0,0,1-3.6,6.254C76,25.5,73.512,26.011,70.641,26.653c-5.526,1.285-14.651,2.527-18.72-.771-4.455,2.613-13.408,2.956-17.564-.171C31.4,29.438,19.75,29.138,21.464,21.684a42.53,42.53,0,0,1-8.4,5.183c-3.6,1.542-10.324,1.371-9.639-3.641a4.364,4.364,0,0,1,.6-1.456,35.758,35.758,0,0,1-2.313-4.626A16.49,16.49,0,0,1,.088,11.832c-.214-4.455,3.3-7.282,6.726-8.61a53.65,53.65,0,0,1,4.926-2.142c2.613-.771,4.884.643,5.012,3.041,3.041-.9,6.726-1.885,10.709-1.328,3.17-2.485,9.424-.942,13.494.214a18.458,18.458,0,0,0,2.87.942,11.685,11.685,0,0,0,2.228-1.071C48.923,1.593,52.65.265,56.762.951a20.336,20.336,0,0,0,2.313.6,14.035,14.035,0,0,0,1.842-.171C70.513.951,78.481,3.521,86.748,4.806Zm-26.816-.3c-.985.129-1.671,1.2-2.313,1.542.043,0,.086,0,.086-.086a8.119,8.119,0,0,0,.386-1.542c-5.141-1.8-10.11.814-13.794,2.87a32.49,32.49,0,0,0-7.411,5.4,33.412,33.412,0,0,1,2.142-3.3c.814-1.071,1.671-2.056,2.4-3-1.542-.386-3.084-.814-4.626-1.157-2.185-.471-5.269-1.242-7.111-.214-.514.3-.942,1.028-1.456,1.071a13.272,13.272,0,0,1-1.628-.3,16.78,16.78,0,0,0-5.312.3c-1.585.343-4.969.9-5.4,2.4-.3.942.343,1.885.214,2.87a8.106,8.106,0,0,1-1.456,2.913,4.834,4.834,0,0,1-2.1,2.142c-.6-2.87.043-5.44.557-7.882.3-1.5.9-3.041.386-4.541-1.456-.214-2.7.942-4.155,1.542C6.6,6.648,3.557,7.634,3.172,10.761a7.856,7.856,0,0,0,.942,4.155,31.075,31.075,0,0,0,3.77,7.111c-.428.771-1.371.942-1.456,2.013a2.659,2.659,0,0,0,2.228.685c2.57,0,4.712-1.285,6.64-2.4,4.2-2.356,6.983-5.954,9.938-9.381a6.9,6.9,0,0,1,1.628-1.714c.685,3.041-.643,4.669-1.542,7.154-.343.942-1.456,3.984-.942,5.4.6,1.585,5.655,1.628,7.025.643.685-.514.942-1.671,1.328-2.4.471-.942.857-1.714,1.242-2.527.043,3.384,2.527,4.369,5.226,5.1,5.783,1.542,11.566-1.2,14.736-3.084-.386,2.485.557,2.742,2.527,3.17,5.1,1.071,10.2-.171,14.351-1.157,3.77-.9,6.854-1.542,7.411-5.312-.6-.514-2.142-.471-3.17-.3-3.041.428-6.04,2.013-10.11,1.714-.728-.043-2.356-.3-2.485-.771-.171-.728,1.114-1.2,2.185-1.371,3.041-.514,7.5,0,9.938-.942,1.2-.428,2.613-1.714,2.485-3.17-.086-.942-1.328-1.456-2.527-1.542-3.384-.214-5.783,1.756-9.339,1.071.428-.557.514-1.5,1.071-1.928,2.57-.043,5.1.471,7.539.3a9.24,9.24,0,0,0,6.94-3.556c.171-.214.6-.428.471-.771C75.311,6.006,67.257,3.607,59.932,4.506Z" transform="translate(-10 1.172)" fill="#979da2"/>
  </g>
</svg>
